<?xml version="1.0" encoding="UTF-8"?>
<svg width="35px" height="35px" viewBox="0 0 35 35" version="1.1" xmlns="http://www.w3.org/2000/svg" xmlns:xlink="http://www.w3.org/1999/xlink">
    <!-- Generator: Sketch 40.2 (33826) - http://www.bohemiancoding.com/sketch -->
    <title>Setting</title>
    <desc>Created with Sketch.</desc>
    <defs>
        <path d="M13.1298954,0.598160127 L15.8699836,0.598160127 L16.850598,3.56139076 C16.9603869,3.89432201 17.2266606,4.15239719 17.5635129,4.25184881 C18.2799923,4.46536681 18.94835,4.73449218 19.5796361,5.07633485 C19.886546,5.24565213 20.2569053,5.25385065 20.5709443,5.09843521 L23.3669964,3.70611248 L25.2940052,5.63312136 L23.9016825,8.42917346 C23.7462671,8.74321246 23.7544656,9.11357174 23.9237829,9.42048158 C24.2656255,10.0517677 24.5343945,10.7201254 24.7482689,11.4366048 C24.8473641,11.7731006 25.1054393,12.0397308 25.438727,12.1495197 L28.4019576,13.1297776 L28.4019576,15.8702224 L25.438727,16.8615305 C25.1082909,16.9691806 24.8505722,17.2311768 24.7482689,17.5633952 C24.5358203,18.2738148 24.2656255,18.9485888 23.9237829,19.5795184 C23.7544656,19.8864283 23.7462671,20.2567875 23.9016825,20.5708265 L25.2940052,23.3668786 L23.3669964,25.2938875 L20.5709443,23.9015648 C20.2569053,23.7461493 19.886546,23.7543479 19.5796361,23.9240216 C18.9487065,24.2655078 18.2739326,24.5357026 17.5635129,24.7481512 C17.2309381,24.8504545 16.9692984,25.1081732 16.8616482,25.4389657 L15.8699836,28.4018399 L13.1298954,28.4018399 L12.1496374,25.4389657 C12.0398485,25.105678 11.7732184,24.8476028 11.4367225,24.7481512 C10.7202431,24.5346332 10.051529,24.2655078 9.42059931,23.9240216 C9.11368946,23.7543479 8.74333018,23.7461493 8.42893473,23.9015648 L5.63323908,25.2938875 L3.7062302,23.3668786 L5.09855294,20.5708265 C5.25396838,20.2567875 5.24576986,19.8864283 5.07609612,19.5795184 C4.73425344,18.9482323 4.46548453,18.2798746 4.25196653,17.5633952 C4.15251491,17.2268994 3.89443973,16.9602692 3.56115203,16.8504803 L0.598277848,15.8702224 L0.598277848,13.1297776 L3.56115203,12.1495197 C3.89443973,12.0397308 4.15251491,11.7731006 4.25196653,11.4366048 C4.46548453,10.7201254 4.73425344,10.0517677 5.07609612,9.42048158 C5.24576986,9.11357174 5.25396838,8.74321246 5.09855294,8.42917346 L3.7062302,5.63312136 L5.63323908,3.70611248 L8.42893473,5.09843521 C8.74333018,5.25385065 9.11368946,5.24565213 9.42059931,5.07633485 C10.051529,4.73449218 10.7202431,4.46536681 11.4367225,4.25184881 C11.7732184,4.15239719 12.0398485,3.89432201 12.1496374,3.56139076 L13.1298954,0.598160127 L13.1298954,0.598160127 Z" id="path-1"></path>
        <mask id="mask-2" maskContentUnits="userSpaceOnUse" maskUnits="objectBoundingBox" x="-3" y="-3" width="33.8036797" height="33.8036797">
            <rect x="-2.40172215" y="-2.40183987" width="33.8036797" height="33.8036797" fill="white"></rect>
            <use xlink:href="#path-1" fill="black"></use>
        </mask>
    </defs>
    <g id="Page-1" stroke="none" stroke-width="1" fill="none" fill-rule="evenodd">
        <g id="Setting" transform="translate(3.000000, 3.000000)" stroke="#000000">
            <g id="Page-1">
                <use id="Stroke-1" mask="url(#mask-2)" stroke-width="6" stroke-linecap="round" stroke-linejoin="round" xlink:href="#path-1"></use>
                <path d="M14.5,8.22151899 C17.9814177,8.22151899 20.778481,11.0185823 20.778481,14.5 C20.778481,17.9814177 17.9814177,20.778481 14.5,20.778481 C11.0185823,20.778481 8.22151899,17.9814177 8.22151899,14.5 C8.22151899,11.0185823 11.0185823,8.22151899 14.5,8.22151899 L14.5,8.22151899 Z" id="Stroke-3" stroke-width="3"></path>
            </g>
        </g>
    </g>
</svg>