<?xml version="1.0" encoding="UTF-8"?>
<svg width="37px" height="36px" viewBox="0 0 37 36" version="1.1" xmlns="http://www.w3.org/2000/svg" xmlns:xlink="http://www.w3.org/1999/xlink">
    <!-- Generator: Sketch 40.2 (33826) - http://www.bohemiancoding.com/sketch -->
    <title>oatbook-icon</title>
    <desc>Created with Sketch.</desc>
    <defs>
        <polygon id="path-1" points="15.0292644 35.14517 29.8675882 35.14517 29.8675882 0.216728548 15.0292644 0.216728548 0.190940511 0.216728548 0.190940511 35.14517"></polygon>
    </defs>
    <g id="Page-1" stroke="none" stroke-width="1" fill="none" fill-rule="evenodd">
        <g id="oatbook-icon" transform="translate(1.000000, 0.000000)">
            <g id="Group-3" transform="translate(5.852941, 0.108690)">
                <mask id="mask-2" fill="white">
                    <use xlink:href="#path-1"></use>
                </mask>
                <g id="Clip-2"></g>
                <path d="M12.5048647,0.216728548 C8.23492353,0.216728548 4.13030588,1.79045116 0.947423529,4.64762331 C0.0146882353,5.48524987 -0.0668411765,6.925551 0.765923529,7.8640572 C1.59836471,8.80256341 3.03030588,8.88489423 3.96368824,8.04694226 C6.31542353,5.93530329 9.34883529,4.77258392 12.5048647,4.77258392 C19.5811,4.77258392 25.3383059,10.5634015 25.3383059,17.6809493 C25.3383059,22.8808073 22.2612176,27.5499083 17.4995118,29.5756368 C15.9184235,30.2482763 14.2380118,30.5893146 12.5048647,30.5893146 C10.7730118,30.5893146 9.09421765,30.2489271 7.51442353,29.5775893 C6.36298235,29.0881603 5.0336,29.6299817 4.54668824,30.7891214 C4.05977647,31.9482612 4.5991,33.2844285 5.75151176,33.7741829 C7.89198235,34.6837269 10.1644529,35.14517 12.5048647,35.14517 C14.8475412,35.14517 17.1216294,34.6830761 19.2640412,33.7715796 C25.7055118,31.0312326 29.8677176,24.71519 29.8677176,17.6809493 C29.8677176,8.05117269 22.0787471,0.216728548 12.5048647,0.216728548" id="Fill-1" fill="#000000" mask="url(#mask-2)"></path>
            </g>
            <path d="M22.697515,19.5971457 C22.697515,21.9656632 20.8136175,23.978657 18.3414353,23.978657 C15.9866654,23.978657 13.9853556,22.0841711 13.9853556,19.5971457 C13.9853556,16.2813852 18.3414353,13.3207383 18.3414353,11.3077445 C18.3414353,13.4392462 22.697515,16.3998931 22.697515,19.5971457" id="Fill-4" fill="#000000"></path>
            <path d="M5.64396522,29.8693654 L5.64720051,29.8693654 C4.7704358,28.9712111 4.78661227,27.5296082 5.68278875,26.650979 C6.57572992,25.7690956 8.00896522,25.7853665 8.88572992,26.686775 C9.75925933,27.5849293 9.74308286,29.0265322 8.84658286,29.9084156 C8.40690639,30.3412218 7.83425933,30.5559979 7.26484757,30.5559979 C6.67570051,30.5559979 6.08720051,30.3282051 5.64396522,29.8693654" id="Fill-8" stroke="#000000" fill="#000000"></path>
            <path d="M1.20029412,23.1937723 C0.740882353,22.0222666 1.31385294,20.7010686 2.475,20.2389747 C3.63970588,19.7768808 4.95355882,20.3531965 5.41297059,21.5243767 C5.87205882,22.6926282 5.30297059,24.0170805 4.13794118,24.4791744 C3.86617647,24.5865624 3.58470588,24.6386293 3.31002941,24.6386293 C2.40414706,24.6386293 1.54970588,24.0919267 1.20029412,23.1937723" id="Fill-10" stroke="#000000" fill="#000000"></path>
            <path d="M2.26470588,17.6963946 C1.66941176,17.6963946 1.08414706,17.4559105 0.663558824,17.0325414 C0.556794118,16.9254788 0.462970588,16.811257 0.382088235,16.6846693 C0.297647059,16.5610104 0.229705882,16.4305176 0.171470588,16.2909132 C0.116470588,16.1542376 0.0715,16.0107281 0.0423823529,15.8642899 C0.0129411765,15.7181771 0,15.5681593 0,15.4220465 C0,15.2723541 0.0129411765,15.1226617 0.0423823529,14.9762235 C0.0715,14.8294599 0.116470588,14.6862759 0.171470588,14.5496002 C0.229705882,14.4129246 0.297647059,14.2795031 0.382088235,14.1558441 C0.462970588,14.0321852 0.556794118,13.9153601 0.663558824,13.8112262 C1.08414706,13.3846029 1.66941176,13.1405392 2.26470588,13.1405392 C2.86032353,13.1405392 3.44267647,13.3846029 3.86617647,13.8112262 C3.97002941,13.9153601 4.06385294,14.0321852 4.14764706,14.1558441 C4.22852941,14.2795031 4.29970588,14.4129246 4.35470588,14.5496002 C4.41002941,14.6862759 4.45532353,14.8294599 4.48411765,14.9762235 C4.51323529,15.1226617 4.52941176,15.2723541 4.52941176,15.4220465 C4.52941176,15.5681593 4.51323529,15.7181771 4.48411765,15.8642899 C4.45532353,16.0107281 4.41002941,16.1542376 4.35470588,16.2909132 C4.29970588,16.4305176 4.22852941,16.5610104 4.14764706,16.6846693 C4.06385294,16.811257 3.97002941,16.9254788 3.86617647,17.0325414 C3.44267647,17.4559105 2.86032353,17.6963946 2.26470588,17.6963946" id="Fill-12" stroke="#000000" fill="#000000"></path>
        </g>
    </g>
</svg>